<mxfile host="app.diagrams.net" modified="2023-08-17T08:28:43.063Z" agent="Mozilla/5.0 (Windows NT 10.0; Win64; x64; rv:109.0) Gecko/20100101 Firefox/116.0" etag="a7x6CjxyJNJMBYO24gD3" version="21.6.8" type="github">
  <diagram name="Page-1" id="7e0a89b8-554c-2b80-1dc8-d5c74ca68de4">
    <mxGraphModel dx="2206" dy="1160" grid="1" gridSize="10" guides="1" tooltips="1" connect="1" arrows="1" fold="1" page="1" pageScale="1" pageWidth="1100" pageHeight="850" background="none" math="0" shadow="0">
      <root>
        <mxCell id="0" />
        <mxCell id="1" parent="0" />
        <mxCell id="5weRVLNmfLaxIHP2Pojv-4" value="" style="shape=link;html=1;rounded=0;entryX=0.142;entryY=0.001;entryDx=0;entryDy=0;width=-4.318181818181818;entryPerimeter=0;" edge="1" parent="1" target="5weRVLNmfLaxIHP2Pojv-46">
          <mxGeometry width="100" relative="1" as="geometry">
            <mxPoint x="470" y="180" as="sourcePoint" />
            <mxPoint x="600" y="200" as="targetPoint" />
            <Array as="points">
              <mxPoint x="683" y="180" />
            </Array>
          </mxGeometry>
        </mxCell>
        <mxCell id="5weRVLNmfLaxIHP2Pojv-12" value="" style="shape=link;html=1;rounded=0;entryX=0;entryY=0.5;entryDx=0;entryDy=0;" edge="1" parent="1" source="5weRVLNmfLaxIHP2Pojv-9" target="5weRVLNmfLaxIHP2Pojv-13">
          <mxGeometry width="100" relative="1" as="geometry">
            <mxPoint x="430" y="40" as="sourcePoint" />
            <mxPoint x="690" y="-40" as="targetPoint" />
            <Array as="points">
              <mxPoint x="430" y="60" />
            </Array>
          </mxGeometry>
        </mxCell>
        <mxCell id="5weRVLNmfLaxIHP2Pojv-14" value="" style="shape=link;html=1;rounded=0;" edge="1" parent="1">
          <mxGeometry width="100" relative="1" as="geometry">
            <mxPoint x="270" y="180" as="sourcePoint" />
            <mxPoint x="390" y="180" as="targetPoint" />
          </mxGeometry>
        </mxCell>
        <mxCell id="5weRVLNmfLaxIHP2Pojv-29" value="" style="shape=link;html=1;rounded=0;exitX=1;exitY=0.5;exitDx=0;exitDy=0;entryX=0;entryY=0.5;entryDx=0;entryDy=0;" edge="1" parent="1" source="5weRVLNmfLaxIHP2Pojv-23" target="5weRVLNmfLaxIHP2Pojv-18">
          <mxGeometry width="100" relative="1" as="geometry">
            <mxPoint x="130" y="180" as="sourcePoint" />
            <mxPoint x="196.5" y="179.38" as="targetPoint" />
          </mxGeometry>
        </mxCell>
        <mxCell id="5weRVLNmfLaxIHP2Pojv-33" value="" style="group" vertex="1" connectable="0" parent="1">
          <mxGeometry x="40" y="140" width="80" height="120" as="geometry" />
        </mxCell>
        <mxCell id="5weRVLNmfLaxIHP2Pojv-31" value="" style="group" vertex="1" connectable="0" parent="5weRVLNmfLaxIHP2Pojv-33">
          <mxGeometry width="80" height="80" as="geometry" />
        </mxCell>
        <mxCell id="5weRVLNmfLaxIHP2Pojv-23" value="" style="whiteSpace=wrap;html=1;aspect=fixed;" vertex="1" parent="5weRVLNmfLaxIHP2Pojv-31">
          <mxGeometry width="80" height="80" as="geometry" />
        </mxCell>
        <mxCell id="5weRVLNmfLaxIHP2Pojv-24" value="" style="ellipse;whiteSpace=wrap;html=1;aspect=fixed;" vertex="1" parent="5weRVLNmfLaxIHP2Pojv-31">
          <mxGeometry x="10" y="10" width="60" height="60" as="geometry" />
        </mxCell>
        <mxCell id="5weRVLNmfLaxIHP2Pojv-25" value="" style="ellipse;whiteSpace=wrap;html=1;aspect=fixed;" vertex="1" parent="5weRVLNmfLaxIHP2Pojv-31">
          <mxGeometry x="24.5" y="26" width="10" height="10" as="geometry" />
        </mxCell>
        <mxCell id="5weRVLNmfLaxIHP2Pojv-27" value="" style="ellipse;whiteSpace=wrap;html=1;aspect=fixed;" vertex="1" parent="5weRVLNmfLaxIHP2Pojv-31">
          <mxGeometry x="46.5" y="27" width="10" height="10" as="geometry" />
        </mxCell>
        <mxCell id="5weRVLNmfLaxIHP2Pojv-28" value="" style="ellipse;whiteSpace=wrap;html=1;aspect=fixed;fillColor=#4D4D4D;" vertex="1" parent="5weRVLNmfLaxIHP2Pojv-31">
          <mxGeometry x="34.5" y="49" width="10" height="10" as="geometry" />
        </mxCell>
        <UserObject label="Prise commandÃ©e" placeholders="1" name="Variable" id="5weRVLNmfLaxIHP2Pojv-32">
          <mxCell style="text;html=1;strokeColor=none;fillColor=none;align=center;verticalAlign=middle;whiteSpace=wrap;overflow=hidden;" vertex="1" parent="5weRVLNmfLaxIHP2Pojv-33">
            <mxGeometry y="80" width="80" height="40" as="geometry" />
          </mxCell>
        </UserObject>
        <mxCell id="5weRVLNmfLaxIHP2Pojv-36" value="" style="group" vertex="1" connectable="0" parent="1">
          <mxGeometry x="390" y="140" width="80" height="120" as="geometry" />
        </mxCell>
        <UserObject label="Interrupteur double" placeholders="1" name="Variable" id="5weRVLNmfLaxIHP2Pojv-17">
          <mxCell style="text;html=1;strokeColor=none;fillColor=none;align=center;verticalAlign=middle;whiteSpace=wrap;overflow=hidden;" vertex="1" parent="5weRVLNmfLaxIHP2Pojv-36">
            <mxGeometry y="75" width="80" height="45" as="geometry" />
          </mxCell>
        </UserObject>
        <mxCell id="5weRVLNmfLaxIHP2Pojv-35" value="" style="group" vertex="1" connectable="0" parent="5weRVLNmfLaxIHP2Pojv-36">
          <mxGeometry width="80" height="80" as="geometry" />
        </mxCell>
        <mxCell id="5weRVLNmfLaxIHP2Pojv-9" value="" style="ellipse;whiteSpace=wrap;html=1;aspect=fixed;" vertex="1" parent="5weRVLNmfLaxIHP2Pojv-35">
          <mxGeometry width="80" height="80" as="geometry" />
        </mxCell>
        <mxCell id="5weRVLNmfLaxIHP2Pojv-10" value="" style="rounded=0;whiteSpace=wrap;html=1;rotation=90;" vertex="1" parent="5weRVLNmfLaxIHP2Pojv-35">
          <mxGeometry x="5" y="30" width="50" height="20" as="geometry" />
        </mxCell>
        <mxCell id="5weRVLNmfLaxIHP2Pojv-11" value="" style="rounded=0;whiteSpace=wrap;html=1;rotation=90;" vertex="1" parent="5weRVLNmfLaxIHP2Pojv-35">
          <mxGeometry x="25" y="30" width="50" height="20" as="geometry" />
        </mxCell>
        <mxCell id="5weRVLNmfLaxIHP2Pojv-37" value="" style="group" vertex="1" connectable="0" parent="1">
          <mxGeometry x="190" y="140" width="80" height="120" as="geometry" />
        </mxCell>
        <UserObject label="Interrupteur simple" placeholders="1" name="Variable" id="5weRVLNmfLaxIHP2Pojv-21">
          <mxCell style="text;html=1;strokeColor=none;fillColor=none;align=center;verticalAlign=middle;whiteSpace=wrap;overflow=hidden;" vertex="1" parent="5weRVLNmfLaxIHP2Pojv-37">
            <mxGeometry y="75" width="80" height="45" as="geometry" />
          </mxCell>
        </UserObject>
        <mxCell id="5weRVLNmfLaxIHP2Pojv-34" value="" style="group" vertex="1" connectable="0" parent="5weRVLNmfLaxIHP2Pojv-37">
          <mxGeometry width="80" height="80" as="geometry" />
        </mxCell>
        <mxCell id="5weRVLNmfLaxIHP2Pojv-18" value="" style="ellipse;whiteSpace=wrap;html=1;aspect=fixed;" vertex="1" parent="5weRVLNmfLaxIHP2Pojv-34">
          <mxGeometry width="80" height="80" as="geometry" />
        </mxCell>
        <mxCell id="5weRVLNmfLaxIHP2Pojv-20" value="" style="rounded=0;whiteSpace=wrap;html=1;rotation=90;" vertex="1" parent="5weRVLNmfLaxIHP2Pojv-34">
          <mxGeometry x="15" y="30" width="50" height="20" as="geometry" />
        </mxCell>
        <mxCell id="5weRVLNmfLaxIHP2Pojv-39" value="" style="group" vertex="1" connectable="0" parent="1">
          <mxGeometry x="470" y="40" width="80" height="60" as="geometry" />
        </mxCell>
        <mxCell id="5weRVLNmfLaxIHP2Pojv-13" value="" style="shape=sumEllipse;perimeter=ellipsePerimeter;whiteSpace=wrap;html=1;backgroundOutline=1;" vertex="1" parent="5weRVLNmfLaxIHP2Pojv-39">
          <mxGeometry x="20" width="40" height="40" as="geometry" />
        </mxCell>
        <UserObject label="Plafonnier" placeholders="1" name="Variable" id="5weRVLNmfLaxIHP2Pojv-16">
          <mxCell style="text;html=1;strokeColor=none;fillColor=none;align=center;verticalAlign=middle;whiteSpace=wrap;overflow=hidden;" vertex="1" parent="5weRVLNmfLaxIHP2Pojv-39">
            <mxGeometry y="40" width="80" height="20" as="geometry" />
          </mxCell>
        </UserObject>
        <mxCell id="5weRVLNmfLaxIHP2Pojv-42" value="" style="endArrow=none;dashed=1;html=1;dashPattern=1 3;strokeWidth=2;rounded=0;exitX=0.218;exitY=0.001;exitDx=0;exitDy=0;exitPerimeter=0;" edge="1" parent="1" source="5weRVLNmfLaxIHP2Pojv-46">
          <mxGeometry width="50" height="50" relative="1" as="geometry">
            <mxPoint x="700" y="800" as="sourcePoint" />
            <mxPoint x="700" y="20" as="targetPoint" />
          </mxGeometry>
        </mxCell>
        <UserObject label="Tableau" placeholders="1" name="Variable" id="5weRVLNmfLaxIHP2Pojv-47">
          <mxCell style="text;html=1;strokeColor=none;fillColor=none;align=center;verticalAlign=middle;whiteSpace=wrap;overflow=hidden;" vertex="1" parent="1">
            <mxGeometry x="640" y="600" width="80" height="20" as="geometry" />
          </mxCell>
        </UserObject>
        <mxCell id="5weRVLNmfLaxIHP2Pojv-44" value="" style="shape=link;html=1;rounded=0;entryX=0.067;entryY=0.001;entryDx=0;entryDy=0;width=-4.318181818181818;entryPerimeter=0;exitX=1;exitY=0.5;exitDx=0;exitDy=0;" edge="1" parent="1" target="5weRVLNmfLaxIHP2Pojv-46" source="5weRVLNmfLaxIHP2Pojv-104">
          <mxGeometry width="100" relative="1" as="geometry">
            <mxPoint x="610" y="380" as="sourcePoint" />
            <mxPoint x="570" y="381" as="targetPoint" />
            <Array as="points">
              <mxPoint x="665" y="330" />
            </Array>
          </mxGeometry>
        </mxCell>
        <mxCell id="5weRVLNmfLaxIHP2Pojv-49" value="" style="group" vertex="1" connectable="0" parent="1">
          <mxGeometry x="240" y="420" width="80" height="120" as="geometry" />
        </mxCell>
        <mxCell id="5weRVLNmfLaxIHP2Pojv-50" value="" style="group" vertex="1" connectable="0" parent="5weRVLNmfLaxIHP2Pojv-49">
          <mxGeometry width="80" height="80" as="geometry" />
        </mxCell>
        <mxCell id="5weRVLNmfLaxIHP2Pojv-51" value="" style="whiteSpace=wrap;html=1;aspect=fixed;" vertex="1" parent="5weRVLNmfLaxIHP2Pojv-50">
          <mxGeometry width="80" height="80" as="geometry" />
        </mxCell>
        <mxCell id="5weRVLNmfLaxIHP2Pojv-52" value="" style="ellipse;whiteSpace=wrap;html=1;aspect=fixed;" vertex="1" parent="5weRVLNmfLaxIHP2Pojv-50">
          <mxGeometry x="10" y="10" width="60" height="60" as="geometry" />
        </mxCell>
        <mxCell id="5weRVLNmfLaxIHP2Pojv-53" value="" style="ellipse;whiteSpace=wrap;html=1;aspect=fixed;" vertex="1" parent="5weRVLNmfLaxIHP2Pojv-50">
          <mxGeometry x="24.5" y="26" width="10" height="10" as="geometry" />
        </mxCell>
        <mxCell id="5weRVLNmfLaxIHP2Pojv-54" value="" style="ellipse;whiteSpace=wrap;html=1;aspect=fixed;" vertex="1" parent="5weRVLNmfLaxIHP2Pojv-50">
          <mxGeometry x="46.5" y="27" width="10" height="10" as="geometry" />
        </mxCell>
        <mxCell id="5weRVLNmfLaxIHP2Pojv-55" value="" style="ellipse;whiteSpace=wrap;html=1;aspect=fixed;fillColor=#4D4D4D;" vertex="1" parent="5weRVLNmfLaxIHP2Pojv-50">
          <mxGeometry x="34.5" y="49" width="10" height="10" as="geometry" />
        </mxCell>
        <UserObject label="Prise porte" placeholders="1" name="Variable" id="5weRVLNmfLaxIHP2Pojv-56">
          <mxCell style="text;html=1;strokeColor=none;fillColor=none;align=center;verticalAlign=middle;whiteSpace=wrap;overflow=hidden;" vertex="1" parent="5weRVLNmfLaxIHP2Pojv-49">
            <mxGeometry y="80" width="80" height="40" as="geometry" />
          </mxCell>
        </UserObject>
        <mxCell id="5weRVLNmfLaxIHP2Pojv-57" value="" style="group" vertex="1" connectable="0" parent="1">
          <mxGeometry x="40" y="418" width="80" height="120" as="geometry" />
        </mxCell>
        <mxCell id="5weRVLNmfLaxIHP2Pojv-58" value="" style="group" vertex="1" connectable="0" parent="5weRVLNmfLaxIHP2Pojv-57">
          <mxGeometry width="80" height="80" as="geometry" />
        </mxCell>
        <mxCell id="5weRVLNmfLaxIHP2Pojv-59" value="" style="whiteSpace=wrap;html=1;aspect=fixed;" vertex="1" parent="5weRVLNmfLaxIHP2Pojv-58">
          <mxGeometry width="80" height="80" as="geometry" />
        </mxCell>
        <mxCell id="5weRVLNmfLaxIHP2Pojv-60" value="" style="ellipse;whiteSpace=wrap;html=1;aspect=fixed;" vertex="1" parent="5weRVLNmfLaxIHP2Pojv-58">
          <mxGeometry x="10" y="10" width="60" height="60" as="geometry" />
        </mxCell>
        <mxCell id="5weRVLNmfLaxIHP2Pojv-61" value="" style="ellipse;whiteSpace=wrap;html=1;aspect=fixed;" vertex="1" parent="5weRVLNmfLaxIHP2Pojv-58">
          <mxGeometry x="24.5" y="26" width="10" height="10" as="geometry" />
        </mxCell>
        <mxCell id="5weRVLNmfLaxIHP2Pojv-62" value="" style="ellipse;whiteSpace=wrap;html=1;aspect=fixed;" vertex="1" parent="5weRVLNmfLaxIHP2Pojv-58">
          <mxGeometry x="46.5" y="27" width="10" height="10" as="geometry" />
        </mxCell>
        <mxCell id="5weRVLNmfLaxIHP2Pojv-63" value="" style="ellipse;whiteSpace=wrap;html=1;aspect=fixed;fillColor=#4D4D4D;" vertex="1" parent="5weRVLNmfLaxIHP2Pojv-58">
          <mxGeometry x="34.5" y="49" width="10" height="10" as="geometry" />
        </mxCell>
        <UserObject label="&lt;div&gt;Prise miroir&lt;/div&gt;" placeholders="1" name="Variable" id="5weRVLNmfLaxIHP2Pojv-64">
          <mxCell style="text;html=1;strokeColor=none;fillColor=none;align=center;verticalAlign=middle;whiteSpace=wrap;overflow=hidden;" vertex="1" parent="5weRVLNmfLaxIHP2Pojv-57">
            <mxGeometry y="80" width="80" height="40" as="geometry" />
          </mxCell>
        </UserObject>
        <mxCell id="5weRVLNmfLaxIHP2Pojv-66" value="" style="ellipse;whiteSpace=wrap;html=1;aspect=fixed;" vertex="1" parent="1">
          <mxGeometry x="140" y="290" width="80" height="80" as="geometry" />
        </mxCell>
        <mxCell id="5weRVLNmfLaxIHP2Pojv-68" value="" style="shape=link;html=1;rounded=0;entryX=0;entryY=0.5;entryDx=0;entryDy=0;exitX=1;exitY=1;exitDx=0;exitDy=0;" edge="1" parent="1" source="5weRVLNmfLaxIHP2Pojv-66" target="5weRVLNmfLaxIHP2Pojv-51">
          <mxGeometry width="100" relative="1" as="geometry">
            <mxPoint x="140" y="448" as="sourcePoint" />
            <mxPoint x="240" y="448" as="targetPoint" />
            <Array as="points">
              <mxPoint x="208" y="460" />
            </Array>
          </mxGeometry>
        </mxCell>
        <mxCell id="5weRVLNmfLaxIHP2Pojv-69" value="" style="shape=link;html=1;rounded=0;exitX=0;exitY=1;exitDx=0;exitDy=0;entryX=1;entryY=0.5;entryDx=0;entryDy=0;" edge="1" parent="1" source="5weRVLNmfLaxIHP2Pojv-66" target="5weRVLNmfLaxIHP2Pojv-59">
          <mxGeometry width="100" relative="1" as="geometry">
            <mxPoint x="400" y="438" as="sourcePoint" />
            <mxPoint x="500" y="438" as="targetPoint" />
            <Array as="points">
              <mxPoint x="152" y="458" />
            </Array>
          </mxGeometry>
        </mxCell>
        <UserObject label="Boite de connexion" placeholders="1" name="Variable" id="5weRVLNmfLaxIHP2Pojv-71">
          <mxCell style="text;html=1;strokeColor=none;fillColor=none;align=center;verticalAlign=middle;whiteSpace=wrap;overflow=hidden;" vertex="1" parent="1">
            <mxGeometry x="140" y="310" width="80" height="40" as="geometry" />
          </mxCell>
        </UserObject>
        <mxCell id="5weRVLNmfLaxIHP2Pojv-90" value="" style="shape=link;html=1;rounded=0;exitX=1;exitY=0.5;exitDx=0;exitDy=0;entryX=0;entryY=0.5;entryDx=0;entryDy=0;" edge="1" parent="1" source="5weRVLNmfLaxIHP2Pojv-66" target="5weRVLNmfLaxIHP2Pojv-115">
          <mxGeometry width="100" relative="1" as="geometry">
            <mxPoint x="260" y="360" as="sourcePoint" />
            <mxPoint x="270" y="380" as="targetPoint" />
          </mxGeometry>
        </mxCell>
        <mxCell id="5weRVLNmfLaxIHP2Pojv-94" value="" style="shape=link;html=1;rounded=0;exitX=1;exitY=0.5;exitDx=0;exitDy=0;entryX=0;entryY=0.5;entryDx=0;entryDy=0;" edge="1" parent="1" target="5weRVLNmfLaxIHP2Pojv-104">
          <mxGeometry width="100" relative="1" as="geometry">
            <mxPoint x="440" y="330" as="sourcePoint" />
            <mxPoint x="450" y="330" as="targetPoint" />
          </mxGeometry>
        </mxCell>
        <mxCell id="5weRVLNmfLaxIHP2Pojv-95" value="" style="endArrow=none;dashed=1;html=1;dashPattern=1 3;strokeWidth=2;rounded=0;" edge="1" parent="1">
          <mxGeometry width="50" height="50" relative="1" as="geometry">
            <mxPoint x="670" y="560" as="sourcePoint" />
            <mxPoint x="40" y="560" as="targetPoint" />
          </mxGeometry>
        </mxCell>
        <mxCell id="5weRVLNmfLaxIHP2Pojv-96" value="Chambre jaune" style="text;strokeColor=none;fillColor=none;html=1;fontSize=24;fontStyle=1;verticalAlign=middle;align=center;" vertex="1" parent="1">
          <mxGeometry x="90" y="30" width="100" height="40" as="geometry" />
        </mxCell>
        <mxCell id="5weRVLNmfLaxIHP2Pojv-98" value="Cuisine / Salle Ã  manger" style="text;strokeColor=none;fillColor=none;html=1;fontSize=24;fontStyle=1;verticalAlign=middle;align=center;" vertex="1" parent="1">
          <mxGeometry x="50" y="590" width="290" height="40" as="geometry" />
        </mxCell>
        <mxCell id="5weRVLNmfLaxIHP2Pojv-99" value="" style="endArrow=none;dashed=1;html=1;dashPattern=1 3;strokeWidth=2;rounded=0;" edge="1" parent="1" target="5weRVLNmfLaxIHP2Pojv-46">
          <mxGeometry width="50" height="50" relative="1" as="geometry">
            <mxPoint x="680" y="560" as="sourcePoint" />
            <mxPoint x="680" y="40" as="targetPoint" />
          </mxGeometry>
        </mxCell>
        <mxCell id="5weRVLNmfLaxIHP2Pojv-46" value="" style="rounded=0;whiteSpace=wrap;html=1;" vertex="1" parent="1">
          <mxGeometry x="650" y="530" width="230" height="460" as="geometry" />
        </mxCell>
        <mxCell id="5weRVLNmfLaxIHP2Pojv-111" value="" style="group" vertex="1" connectable="0" parent="1">
          <mxGeometry x="460" y="340" width="150" height="110" as="geometry" />
        </mxCell>
        <UserObject label="Prises lit&amp;nbsp; nÂ°1" placeholders="1" name="Variable" id="5weRVLNmfLaxIHP2Pojv-79">
          <mxCell style="text;html=1;strokeColor=none;fillColor=none;align=center;verticalAlign=middle;whiteSpace=wrap;overflow=hidden;" vertex="1" parent="5weRVLNmfLaxIHP2Pojv-111">
            <mxGeometry y="20" width="80" height="40" as="geometry" />
          </mxCell>
        </UserObject>
        <mxCell id="5weRVLNmfLaxIHP2Pojv-110" value="" style="group" vertex="1" connectable="0" parent="5weRVLNmfLaxIHP2Pojv-111">
          <mxGeometry y="-50" width="150" height="80" as="geometry" />
        </mxCell>
        <mxCell id="5weRVLNmfLaxIHP2Pojv-104" value="" style="rounded=0;whiteSpace=wrap;html=1;" vertex="1" parent="5weRVLNmfLaxIHP2Pojv-110">
          <mxGeometry width="150" height="80" as="geometry" />
        </mxCell>
        <mxCell id="5weRVLNmfLaxIHP2Pojv-75" value="" style="ellipse;whiteSpace=wrap;html=1;aspect=fixed;" vertex="1" parent="5weRVLNmfLaxIHP2Pojv-110">
          <mxGeometry x="10" y="10" width="60" height="60" as="geometry" />
        </mxCell>
        <mxCell id="5weRVLNmfLaxIHP2Pojv-76" value="" style="ellipse;whiteSpace=wrap;html=1;aspect=fixed;" vertex="1" parent="5weRVLNmfLaxIHP2Pojv-110">
          <mxGeometry x="24.5" y="26" width="10" height="10" as="geometry" />
        </mxCell>
        <mxCell id="5weRVLNmfLaxIHP2Pojv-77" value="" style="ellipse;whiteSpace=wrap;html=1;aspect=fixed;" vertex="1" parent="5weRVLNmfLaxIHP2Pojv-110">
          <mxGeometry x="46.5" y="27" width="10" height="10" as="geometry" />
        </mxCell>
        <mxCell id="5weRVLNmfLaxIHP2Pojv-78" value="" style="ellipse;whiteSpace=wrap;html=1;aspect=fixed;fillColor=#4D4D4D;" vertex="1" parent="5weRVLNmfLaxIHP2Pojv-110">
          <mxGeometry x="34.5" y="49" width="10" height="10" as="geometry" />
        </mxCell>
        <mxCell id="5weRVLNmfLaxIHP2Pojv-106" value="" style="ellipse;whiteSpace=wrap;html=1;aspect=fixed;" vertex="1" parent="5weRVLNmfLaxIHP2Pojv-110">
          <mxGeometry x="80" y="10" width="60" height="60" as="geometry" />
        </mxCell>
        <mxCell id="5weRVLNmfLaxIHP2Pojv-107" value="" style="ellipse;whiteSpace=wrap;html=1;aspect=fixed;" vertex="1" parent="5weRVLNmfLaxIHP2Pojv-110">
          <mxGeometry x="94.5" y="26" width="10" height="10" as="geometry" />
        </mxCell>
        <mxCell id="5weRVLNmfLaxIHP2Pojv-108" value="" style="ellipse;whiteSpace=wrap;html=1;aspect=fixed;" vertex="1" parent="5weRVLNmfLaxIHP2Pojv-110">
          <mxGeometry x="116.5" y="27" width="10" height="10" as="geometry" />
        </mxCell>
        <mxCell id="5weRVLNmfLaxIHP2Pojv-109" value="" style="ellipse;whiteSpace=wrap;html=1;aspect=fixed;fillColor=#4D4D4D;" vertex="1" parent="5weRVLNmfLaxIHP2Pojv-110">
          <mxGeometry x="104.5" y="49" width="10" height="10" as="geometry" />
        </mxCell>
        <mxCell id="5weRVLNmfLaxIHP2Pojv-112" value="" style="group" vertex="1" connectable="0" parent="1">
          <mxGeometry x="290" y="340" width="150" height="110" as="geometry" />
        </mxCell>
        <UserObject label="Prises lit&amp;nbsp; nÂ°2" placeholders="1" name="Variable" id="5weRVLNmfLaxIHP2Pojv-113">
          <mxCell style="text;html=1;strokeColor=none;fillColor=none;align=center;verticalAlign=middle;whiteSpace=wrap;overflow=hidden;" vertex="1" parent="5weRVLNmfLaxIHP2Pojv-112">
            <mxGeometry y="20" width="80" height="40" as="geometry" />
          </mxCell>
        </UserObject>
        <mxCell id="5weRVLNmfLaxIHP2Pojv-114" value="" style="group" vertex="1" connectable="0" parent="5weRVLNmfLaxIHP2Pojv-112">
          <mxGeometry y="-50" width="150" height="80" as="geometry" />
        </mxCell>
        <mxCell id="5weRVLNmfLaxIHP2Pojv-115" value="" style="rounded=0;whiteSpace=wrap;html=1;" vertex="1" parent="5weRVLNmfLaxIHP2Pojv-114">
          <mxGeometry width="150" height="80" as="geometry" />
        </mxCell>
        <mxCell id="5weRVLNmfLaxIHP2Pojv-116" value="" style="ellipse;whiteSpace=wrap;html=1;aspect=fixed;" vertex="1" parent="5weRVLNmfLaxIHP2Pojv-114">
          <mxGeometry x="10" y="10" width="60" height="60" as="geometry" />
        </mxCell>
        <mxCell id="5weRVLNmfLaxIHP2Pojv-117" value="" style="ellipse;whiteSpace=wrap;html=1;aspect=fixed;" vertex="1" parent="5weRVLNmfLaxIHP2Pojv-114">
          <mxGeometry x="24.5" y="26" width="10" height="10" as="geometry" />
        </mxCell>
        <mxCell id="5weRVLNmfLaxIHP2Pojv-118" value="" style="ellipse;whiteSpace=wrap;html=1;aspect=fixed;" vertex="1" parent="5weRVLNmfLaxIHP2Pojv-114">
          <mxGeometry x="46.5" y="27" width="10" height="10" as="geometry" />
        </mxCell>
        <mxCell id="5weRVLNmfLaxIHP2Pojv-119" value="" style="ellipse;whiteSpace=wrap;html=1;aspect=fixed;fillColor=#4D4D4D;" vertex="1" parent="5weRVLNmfLaxIHP2Pojv-114">
          <mxGeometry x="34.5" y="49" width="10" height="10" as="geometry" />
        </mxCell>
        <mxCell id="5weRVLNmfLaxIHP2Pojv-120" value="" style="ellipse;whiteSpace=wrap;html=1;aspect=fixed;" vertex="1" parent="5weRVLNmfLaxIHP2Pojv-114">
          <mxGeometry x="80" y="10" width="60" height="60" as="geometry" />
        </mxCell>
        <mxCell id="5weRVLNmfLaxIHP2Pojv-121" value="" style="ellipse;whiteSpace=wrap;html=1;aspect=fixed;" vertex="1" parent="5weRVLNmfLaxIHP2Pojv-114">
          <mxGeometry x="94.5" y="26" width="10" height="10" as="geometry" />
        </mxCell>
        <mxCell id="5weRVLNmfLaxIHP2Pojv-122" value="" style="ellipse;whiteSpace=wrap;html=1;aspect=fixed;" vertex="1" parent="5weRVLNmfLaxIHP2Pojv-114">
          <mxGeometry x="116.5" y="27" width="10" height="10" as="geometry" />
        </mxCell>
        <mxCell id="5weRVLNmfLaxIHP2Pojv-123" value="" style="ellipse;whiteSpace=wrap;html=1;aspect=fixed;fillColor=#4D4D4D;" vertex="1" parent="5weRVLNmfLaxIHP2Pojv-114">
          <mxGeometry x="104.5" y="49" width="10" height="10" as="geometry" />
        </mxCell>
        <mxCell id="5weRVLNmfLaxIHP2Pojv-124" value="Chambre bleue" style="text;strokeColor=none;fillColor=none;html=1;fontSize=24;fontStyle=1;verticalAlign=middle;align=center;" vertex="1" parent="1">
          <mxGeometry x="800" y="30" width="100" height="40" as="geometry" />
        </mxCell>
        <mxCell id="5weRVLNmfLaxIHP2Pojv-125" value="Suite&amp;nbsp; verte" style="text;strokeColor=none;fillColor=none;html=1;fontSize=24;fontStyle=1;verticalAlign=middle;align=center;" vertex="1" parent="1">
          <mxGeometry x="1490" y="40" width="100" height="40" as="geometry" />
        </mxCell>
        <mxCell id="5weRVLNmfLaxIHP2Pojv-127" value="SÃ©jour" style="text;strokeColor=none;fillColor=none;html=1;fontSize=24;fontStyle=1;verticalAlign=middle;align=center;" vertex="1" parent="1">
          <mxGeometry x="1310" y="1180" width="290" height="40" as="geometry" />
        </mxCell>
        <mxCell id="5weRVLNmfLaxIHP2Pojv-128" value="" style="rounded=0;whiteSpace=wrap;html=1;" vertex="1" parent="1">
          <mxGeometry x="1360" y="540" width="155" height="310" as="geometry" />
        </mxCell>
        <mxCell id="5weRVLNmfLaxIHP2Pojv-129" value="" style="rounded=0;whiteSpace=wrap;html=1;" vertex="1" parent="1">
          <mxGeometry x="650" y="1580" width="77.5" height="155" as="geometry" />
        </mxCell>
        <UserObject label="Tableau principal" placeholders="1" name="Variable" id="5weRVLNmfLaxIHP2Pojv-130">
          <mxCell style="text;html=1;strokeColor=none;fillColor=none;align=center;verticalAlign=middle;whiteSpace=wrap;overflow=hidden;fontSize=14;" vertex="1" parent="1">
            <mxGeometry x="670" y="980" width="190" height="50" as="geometry" />
          </mxCell>
        </UserObject>
        <UserObject label="Tableau divisionnaire intÃ©rieur" placeholders="1" name="Variable" id="5weRVLNmfLaxIHP2Pojv-131">
          <mxCell style="text;html=1;strokeColor=none;fillColor=none;align=center;verticalAlign=middle;whiteSpace=wrap;overflow=hidden;fontSize=14;" vertex="1" parent="1">
            <mxGeometry x="1342.5" y="850" width="190" height="50" as="geometry" />
          </mxCell>
        </UserObject>
        <UserObject label="Tableau divisionnaire garage" placeholders="1" name="Variable" id="5weRVLNmfLaxIHP2Pojv-132">
          <mxCell style="text;html=1;strokeColor=none;fillColor=none;align=center;verticalAlign=middle;whiteSpace=wrap;overflow=hidden;fontSize=14;" vertex="1" parent="1">
            <mxGeometry x="635.63" y="1740" width="106.25" height="60" as="geometry" />
          </mxCell>
        </UserObject>
        <mxCell id="5weRVLNmfLaxIHP2Pojv-133" value="" style="shape=link;html=1;rounded=0;exitX=1.005;exitY=0.109;exitDx=0;exitDy=0;exitPerimeter=0;" edge="1" parent="1" source="5weRVLNmfLaxIHP2Pojv-46">
          <mxGeometry width="100" relative="1" as="geometry">
            <mxPoint x="880" y="580" as="sourcePoint" />
            <mxPoint x="1360" y="580" as="targetPoint" />
          </mxGeometry>
        </mxCell>
      </root>
    </mxGraphModel>
  </diagram>
</mxfile>
